<svg xmlns="http://www.w3.org/2000/svg" viewBox="0 0 255.81 96.63"><defs><style>.cls-1{fill:#231f20;}</style></defs><title>Asset 7</title><g id="Layer_2" data-name="Layer 2"><g id="Layer_1-2" data-name="Layer 1"><path class="cls-1" d="M56.62,65.62a17,17,0,0,1-14.5,7.88c-10.87,0-19-8.88-19-21.62,0-16.38,11.38-28.13,24.63-28.13C52.5,23.75,58,26,59.88,30.88l1-5.5H72.75L66.25,56A10.86,10.86,0,0,0,66,58.25a3.9,3.9,0,0,0,4,4.13c6.12,0,12.25-9,12.25-21.13,0-17.63-13.5-29.87-33-29.87C28.38,11.38,12.62,26.5,12.62,49c0,20.75,14,36.5,37.63,36.5a37.84,37.84,0,0,0,23-7.38l6,8.5c-6.75,6.13-19.13,10-29,10C21,96.62,0,77.62,0,49.25,0,20.12,22.25,0,49.12,0c25.76,0,45,17.62,45,41.12,0,19-12.5,31.88-25.37,32.13C61.88,73.25,57.75,69.75,56.62,65.62ZM48.62,35C41.12,35,36,42.38,36,50.75c0,6.63,2.5,11.5,8.88,11.5,6.87,0,12-7.37,12.24-17.37C57.12,38.88,54.12,35,48.62,35Z"/><path class="cls-1" d="M117.11,11.49h7.41V34.37c0,6.44-4.77,10.57-11,10.57s-11-3.22-11-10.18H110c.06,2.7,1.41,4.18,3.54,4.18s3.61-1.74,3.61-4.57Z"/><path class="cls-1" d="M155,11.49V33.27c0,7.54-5.42,11.67-13.34,11.67s-13.48-4.13-13.48-11.67V11.49h7.48V33c0,3.22,2.45,5.22,6,5.22s5.86-2,5.86-5.22V11.49Z"/><path class="cls-1" d="M169,33.66h.26L174,11.49h6.51l4.77,22.23h.26L189,11.49h6.7l-6.25,33h-7.61L177.37,23.8h-.26l-4.44,20.69h-7.61l-6.31-33h6.76Z"/><path class="cls-1" d="M196.26,44.49l11-33h8l11,33h-8.18l-1.74-6.19H206.18l-1.74,6.19Zm11.6-12.18h6.83l-3.22-11.48h-.39Z"/><path class="cls-1" d="M255.81,44.49h-7.35l-11.73-20.3h-.25v20.3H229v-33h7.41l11.67,20.3h.25V11.49h7.48Z"/><path class="cls-1" d="M110.66,82.14V93.49h-7.47v-33H116c8.31,0,12,4.9,12,11.21s-3.93,10.44-12,10.44Zm0-6.12H116c3.35,0,4.64-2.25,4.64-4.64s-1.29-4.7-4.64-4.7h-5.29Z"/><path class="cls-1" d="M153.2,93.49h-22v-33h22v6.19H138.64v7.21H151v6.19H138.64V87.3H153.2Z"/><path class="cls-1" d="M182.59,66.68h-9.67V93.49h-7.41V66.68h-9.67V60.49h26.75Z"/><path class="cls-1" d="M211,66.68h-9.67V93.49h-7.41V66.68H184.2V60.49H211Z"/><path class="cls-1" d="M228,74.54l7-14.05h8.06L231.77,81.18V93.49h-7.48V81.18L213,60.49h8.06Z"/></g></g></svg>